Coordinates
version=1
nRows=19
nColumns=24
inDegrees=yes

Units are S.I. units (second, meters, Newtons, ...)
Angles are in degrees.

endheader
time	pelvis_tilt	pelvis_list	pelvis_rotation	pelvis_tx	pelvis_ty	pelvis_tz	hip_flexion_r	hip_adduction_r	hip_rotation_r	knee_angle_r	ankle_angle_r	subtalar_angle_r	mtp_angle_r	hip_flexion_l	hip_adduction_l	hip_rotation_l	knee_angle_l	ankle_angle_l	subtalar_angle_l	mtp_angle_l	lumbar_extension	lumbar_bending	lumbar_rotation
      0.64600000	      0.90355514	      8.67733207	     -0.28231752	     -0.78925694	      1.04903529	      0.28062123	     22.62183199	     -4.91734126	    -12.58477255	      3.54103906	      1.38046377	      0.05854932	      0.05389701	    -21.91160750	     13.58969526	     -1.56370283	      1.39092932	      2.51435396	      1.96041241	      0.24275634	      2.49957576	     -6.58897064	     -1.59649373
      0.65016667	      0.86906858	      8.64223545	     -0.24048041	     -0.78319610	      1.04876441	      0.28070548	     22.59142575	     -4.81791559	    -12.47314125	      3.21987437	      1.38009259	      0.06174091	      0.05709745	    -22.03858560	     13.50634452	     -1.50520894	      1.03215394	      2.47250255	      1.94947108	      0.24553335	      2.53525633	     -6.56702887	     -1.60418952
      0.65433333	      0.93343044	      8.58718281	     -0.21328010	     -0.77711194	      1.04862049	      0.28071509	     22.41236095	     -4.71363646	    -12.05548440	      2.89344426	      1.68295437	     -0.09683202	      0.08584814	    -22.29124433	     13.40943505	     -1.39547092	      0.75314019	      2.18869741	      1.87493813	      0.27553257	      2.58651385	     -6.40330987	     -1.70823419
      0.65850000	      1.04006764	      8.53903556	     -0.22916187	     -0.77109043	      1.04850548	      0.28083134	     22.20623039	     -4.59770913	    -11.58057022	      2.53990379	      1.79201261	     -0.54151306	      0.13033373	    -22.55832344	     13.33097743	     -1.41477814	      0.43226656	      1.88097428	      1.70111548	      0.34534859	      2.47084264	     -6.32703746	     -1.84135811
      0.66266667	      1.08899584	      8.46944466	     -0.18084012	     -0.76488977	      1.04839369	      0.28086247	     22.02561209	     -4.48167994	    -11.12830888	      2.20369875	      1.71748518	     -0.87203659	      0.16857208	    -22.77380240	     13.20386355	     -1.30777157	      0.08916703	      1.71473263	      1.69291528	      0.42129543	      2.49255268	     -6.20850389	     -1.91201306
      0.66683333	      1.09757722	      8.43822241	     -0.08788665	     -0.75874101	      1.04825806	      0.28081472	     21.92923160	     -4.42448283	    -10.94780996	      1.75967252	      1.69237699	     -0.93245203	      0.17566650	    -22.90453493	     13.10780974	     -1.29526114	     -0.34644048	      1.63934233	      1.67804421	      0.43446377	      2.54731342	     -6.15080939	     -1.92668094
      0.67100000	      1.26701462	      8.31862514	     -0.18604504	     -0.75246639	      1.04824723	      0.28112083	     21.60323033	     -4.20137091	    -10.14200275	      1.43624264	      1.64123232	     -1.88570228	      0.24052274	    -23.21852525	     12.97012792	     -1.46905164	     -0.68169545	      1.14093041	      1.62716721	      0.58382015	      2.40779765	     -6.00912092	     -2.08641773
      0.67516667	      1.26256178	      8.27723460	     -0.05220946	     -0.74621214	      1.04816303	      0.28103469	     21.48197803	     -4.15163321	     -9.89044383	      1.01962654	      1.56189900	     -1.89853456	      0.24804482	    -23.31932137	     12.84157933	     -1.39245828	     -1.15430486	      1.07563695	      1.64521470	      0.60081087	      2.47255885	     -5.92588437	     -2.09677543
      0.67933333	      1.40047539	      8.14260516	     -0.11579883	     -0.73982494	      1.04818279	      0.28139724	     21.14766221	     -3.91824670	     -8.99754446	      0.76201803	      1.13445531	     -3.02609897	      0.33107546	    -23.57201074	     12.66252542	     -1.58984466	     -1.55448463	      0.58947691	      1.73938682	      0.83210846	      2.37491608	     -5.76413922	     -2.23635812
      0.68350000	      1.38884913	      8.06268277	     -0.00654656	     -0.73342308	      1.04812840	      0.28136717	     20.99345547	     -3.82138265	     -8.57051237	      0.40605380	      0.97424147	     -3.15327561	      0.36105389	    -23.65661159	     12.49402401	     -1.46857351	     -2.03080060	      0.43733922	      1.84447129	      0.91213724	      2.42110420	     -5.61652859	     -2.26755724
      0.68766667	      1.43592571	      7.92989172	      0.01753892	     -0.72691088	      1.04813518	      0.28155590	     20.76255840	     -3.63097839	     -8.03825960	      0.10098928	      0.55494286	     -3.67174985	      0.41272195	    -23.77331468	     12.29180666	     -1.67812399	     -2.52329944	     -0.06351695	      1.94786913	      1.06115725	      2.45598993	     -5.44832346	     -2.35541304
      0.69183333	      1.48107173	      7.82646483	      0.06707291	     -0.72049457	      1.04817745	      0.28173856	     20.52857444	     -3.48371222	     -7.44227850	     -0.18950244	      0.12732932	     -4.26285881	      0.47551184	    -23.86779837	     12.10196060	     -1.76791098	     -3.06188077	     -0.38046542	      2.09268168	      1.25110382	      2.44884133	     -5.29518392	     -2.42993866
      0.69600000	      1.51951693	      7.77583762	      0.14262349	     -0.71422016	      1.04823829	      0.28173148	     20.37576994	     -3.42158722	     -7.26875272	     -0.62887985	      0.01324296	     -4.32472582	      0.48575499	    -23.92243204	     11.97317024	     -1.77444797	     -3.66535071	     -0.49173630	      2.09729604	      1.28011254	      2.53881227	     -5.22131005	     -2.44037073
      0.70016667	      1.60866770	      7.59099904	      0.08297853	     -0.70760931	      1.04834394	      0.28208510	     20.09811256	     -3.15517535	     -6.71337666	     -0.88460738	     -0.82580342	     -5.12118683	      0.56072436	    -24.03337245	     11.73211133	     -2.12034961	     -4.20692015	     -1.23703022	      2.36511245	      1.52295934	      2.58746733	     -4.96267516	     -2.56841300
      0.70433333	      1.62737316	      7.44983907	      0.14690877	     -0.70109311	      1.04845731	      0.28235493	     19.87152364	     -2.97594584	     -6.15949169	     -1.13294220	     -1.45959735	     -5.85482311	      0.65847903	    -24.02654865	     11.47919643	     -2.35123286	     -4.85781473	     -1.67104583	      2.63891973	      1.83297349	      2.58036798	     -4.78079695	     -2.64682444
      0.70850000	      1.65483688	      7.36831676	      0.25812628	     -0.69476227	      1.04862986	      0.28238162	     19.70064843	     -2.90429622	     -5.97621189	     -1.52429018	     -1.57722342	     -5.86321215	      0.67015990	    -24.00143135	     11.28415306	     -2.36887532	     -5.57857013	     -1.78788526	      2.63400333	      1.86538365	      2.63508729	     -4.70917676	     -2.65184332
      0.71266667	      1.61718306	      7.14711511	      0.33683399	     -0.68795511	      1.04875670	      0.28258901	     19.53576060	     -2.65701339	     -5.72921513	     -1.78331732	     -2.32725039	     -6.15195355	      0.71907976	    -23.90306248	     10.94030144	     -2.70936779	     -6.27800575	     -2.53379511	      2.87417379	      2.02863170	      2.61206962	     -4.45811823	     -2.73236127
      0.71683333	      1.66920652	      6.98599156	      0.37773401	     -0.68143628	      1.04898619	      0.28284739	     19.32170291	     -2.47300615	     -5.45825044	     -2.10796913	     -3.00625585	     -6.62871938	      0.78585208	    -23.85203021	     10.66498347	     -3.03992453	     -7.04665833	     -3.15186205	      3.14562169	      2.25582083	      2.69554398	     -4.24586047	     -2.80271072
      0.72100000	      1.80154669	      6.79813671	      0.35502450	     -0.67497115	      1.04931510	      0.28339397	     18.99010219	     -2.22941339	     -4.80315063	     -2.35664945	     -3.77689426	     -7.81068915	      1.02844198	    -23.86782444	     10.35313977	     -3.38182353	     -7.83926367	     -3.56777000	      3.65177803	      3.06219119	      2.78401925	     -4.08697916	     -2.87258316
